<?xml version="1.0" encoding="UTF-8"?>
<svg version="1.1" xmlns="http://www.w3.org/2000/svg" width="512" height="512">
<path d="M0 0 C168.96 0 337.92 0 512 0 C512 168.96 512 337.92 512 512 C343.04 512 174.08 512 0 512 C0 343.04 0 174.08 0 0 Z " fill="#000000" transform="translate(0,0)"/>
<path d="M0 0 C12.54 0 25.08 0 38 0 C39.57910156 3.16980469 41.15820312 6.33960938 42.78515625 9.60546875 C44.33698983 12.71696224 45.8895313 15.82810155 47.44213867 18.93920898 C48.51058559 21.08109331 49.57831055 23.22333796 50.64526367 25.3659668 C58.5152179 41.21365971 58.5152179 41.21365971 66.88842773 56.7980957 C68 59 68 59 68 61 C69.7634375 60.505 69.7634375 60.505 71.5625 60 C88.12907603 56.34752654 103.3707921 59.66296031 117.4765625 68.5625 C128.17178305 76.20719373 135.4211476 88.33372813 138.375 101.0625 C140.75221013 117.58528726 137.40342174 132.35929537 127.75 146 C118.76075201 156.53773142 105.75091356 163.69650886 92 165 C75.27638672 165.93907984 61.91704058 161.80103655 49.0625 150.9375 C39.7644323 142.39446336 33.16373085 130.91657918 32.43359375 118.1328125 C32.40597651 116.13039835 32.40785175 114.12738511 32.4375 112.125 C32.45393555 110.54682495 32.45393555 110.54682495 32.47070312 108.93676758 C32.85817589 95.00819798 37.97009231 83.81779692 48.0703125 73.984375 C49.66718043 72.6008538 51.32660444 71.28990907 53 70 C52.40199745 66.17140894 51.25098656 63.22764136 49.4375 59.8125 C47 55.20679887 47 55.20679887 47 53 C46.34 53 45.68 53 45 53 C44.88462891 53.8758374 44.76925781 54.7516748 44.65039062 55.65405273 C44.00584472 58.96993173 43.04167 61.49542523 41.59375 64.53515625 C41.10148926 65.58155273 40.60922852 66.62794922 40.10205078 67.70605469 C39.57337402 68.81368164 39.04469727 69.92130859 38.5 71.0625 C33.43182005 81.85184341 28.60586873 92.7121213 23.97412109 103.69482422 C22.47596457 107.24008586 20.95638612 110.7760842 19.4375 114.3125 C18.633125 116.189375 17.82875 118.06625 17 120 C7.76 120 -1.48 120 -11 120 C-11.66 122.97 -12.32 125.94 -13 129 C-19.46840648 145.46666358 -30.05138429 155.76249448 -46.125 162.9375 C-57.92426026 167.17851525 -72.29590398 166.11886306 -84 162 C-98.78027647 154.85060265 -108.72289887 144.1276554 -114.87109375 128.8828125 C-119.71024869 114.02217256 -116.89808139 99.24757257 -110.18383789 85.65576172 C-104.07153446 73.88359163 -93.31052729 65.74368212 -81 61 C-67.42691932 56.90448908 -52.58314099 57.49543363 -40 64 C-26.78595985 71.24363399 -17.56725578 81.11986988 -12.828125 95.57421875 C-12.12535978 98.37533484 -11.4999829 101.15634726 -11 104 C-6.545 103.505 -6.545 103.505 -2 103 C-9.59 85.18 -17.18 67.36 -25 49 C-28.3 48.67 -31.6 48.34 -35 48 C-38.19149534 45.89828356 -38.81014643 44.65092652 -39.875 41 C-40.00658928 37.84185738 -39.8163322 36.54286509 -38 34 C-33.05169543 30.70113029 -27.43908454 31.63104375 -21.625 31.625 C-20.39265625 31.60050781 -19.1603125 31.57601562 -17.890625 31.55078125 C-16.10785156 31.54498047 -16.10785156 31.54498047 -14.2890625 31.5390625 C-13.20318848 31.53084473 -12.11731445 31.52262695 -10.99853516 31.51416016 C-7.31083591 32.11166231 -5.64420622 33.41209833 -3 36 C-2.14082545 38.94493382 -2.6014379 40.86132349 -3 44 C-4.375 46 -4.375 46 -6 47 C-6.66 47 -7.32 47 -8 47 C-7.62230469 47.78117187 -7.24460937 48.56234375 -6.85546875 49.3671875 C-2.71574483 58.0732111 1.15535278 66.88282337 4.9375 75.75 C5.43419189 76.90483887 5.93088379 78.05967773 6.44262695 79.24951172 C6.9037085 80.3376416 7.36479004 81.42577148 7.83984375 82.546875 C8.46427368 84.01398926 8.46427368 84.01398926 9.10131836 85.51074219 C10 88 10 88 10 91 C10.66 91 11.32 91 12 91 C12.25305908 90.18813988 12.25305908 90.18813988 12.51123047 89.35987854 C14.3605027 83.6026367 16.60369919 78.14431711 19.125 72.65234375 C19.51316895 71.79620987 19.90133789 70.94007599 20.30126953 70.05799866 C21.52997227 67.34922972 22.76450104 64.64317505 24 61.9375 C25.23483537 59.22796394 26.46830679 56.51783213 27.69873047 53.80628967 C28.46066148 52.12767523 29.22514865 50.45021773 29.99267578 48.77415466 C31.01514168 46.52427427 32.01463813 44.26635284 33 42 C33.32144485 41.27292847 33.64288971 40.54585693 33.97407532 39.79675293 C35.64251779 35.85036447 35.64251779 35.85036447 35.60620117 31.65478516 C35.25533447 31.03909668 34.90446777 30.4234082 34.54296875 29.7890625 C34.17236328 29.10199219 33.80175781 28.41492188 33.41992188 27.70703125 C33.01322266 27.01996094 32.60652344 26.33289063 32.1875 25.625 C28 18.09706362 28 18.09706362 28 16 C18.76 16 9.52 16 0 16 C0 10.72 0 5.44 0 0 Z " fill="#FBFBFB" transform="translate(245,176)"/>
<path d="M0 0 C10.4580084 6.18052583 16.84946877 13.53570433 20.27734375 25.2578125 C22.63444083 36.20147753 20.73847179 46.33358263 14.8359375 55.79296875 C9.4859211 63.22837437 1.5511001 69.67858923 -7.66015625 71.3828125 C-20.27620947 72.39861798 -30.58306449 71.3995998 -40.77734375 63.20703125 C-49.43699435 54.81687185 -52.9046944 45.73387587 -53.09765625 33.9453125 C-52.99237172 21.94417559 -49.11386398 14.87755765 -40.66015625 6.3828125 C-36.9680402 9.61749825 -34.98361383 13.26630508 -32.91015625 17.6328125 C-32.21769486 19.05480778 -31.52497846 20.4766789 -30.83203125 21.8984375 C-30.47818359 22.63126953 -30.12433594 23.36410156 -29.75976562 24.11914062 C-27.92759682 27.89087 -26.04146964 31.63542589 -24.16015625 35.3828125 C-23.48282368 36.73685452 -22.80571694 38.09100954 -22.12890625 39.4453125 C-21.64421875 40.4146875 -21.15953125 41.3840625 -20.66015625 42.3828125 C-19.81710937 41.9496875 -18.9740625 41.5165625 -18.10546875 41.0703125 C-17.00976562 40.5134375 -15.9140625 39.9565625 -14.78515625 39.3828125 C-13.69460938 38.8259375 -12.6040625 38.2690625 -11.48046875 37.6953125 C-8.66015625 36.3828125 -8.66015625 36.3828125 -6.66015625 36.3828125 C-6.95148438 35.80015625 -7.2428125 35.2175 -7.54296875 34.6171875 C-13.58203125 22.5390625 -19.62109375 10.4609375 -25.66015625 -1.6171875 C-17.7360591 -4.25855322 -7.51538139 -3.57637118 0 0 Z " fill="#020202" transform="translate(346.66015625,253.6171875)"/>
<path d="M0 0 C8.59851395 6.3055769 12.84451621 13.09252547 15.7578125 23.2890625 C0.2478125 23.2890625 -15.2621875 23.2890625 -31.2421875 23.2890625 C-31.2421875 28.5690625 -31.2421875 33.8490625 -31.2421875 39.2890625 C-16.0621875 39.2890625 -0.8821875 39.2890625 14.7578125 39.2890625 C12.13959852 51.07102541 7.31022573 57.05390134 -2.2421875 64.2890625 C-10.91594545 69.30980063 -22.44727234 69.75043466 -32.09375 67.67578125 C-42.79981766 63.81819814 -50.33765999 56.40787715 -55.2421875 46.2890625 C-59.61609561 36.70812093 -58.80529634 25.95661516 -55.2421875 16.2890625 C-51.03638189 6.74299055 -43.93696144 0.25383845 -34.5546875 -4.2109375 C-23.04306886 -8.29629112 -10.27600865 -6.26119597 0 0 Z " fill="#010101" transform="translate(202.2421875,256.7109375)"/>
<path d="M0 0 C0.33 0 0.66 0 1 0 C1 8.91 1 17.82 1 27 C-7.91 27 -16.82 27 -26 27 C-23.43155025 25.28770017 -21.10789433 24.130075 -18.3125 22.875 C-8.04702367 17.71233333 -3.70281822 10.68120641 0 0 Z " fill="#4C6971" transform="translate(511,485)"/>
<path d="M0 0 C1.71229983 2.56844975 2.869925 4.89210567 4.125 7.6875 C9.28766667 17.95297633 16.31879359 22.29718178 27 26 C27 26.33 27 26.66 27 27 C18.09 27 9.18 27 0 27 C0 18.09 0 9.18 0 0 Z " fill="#4C6971" transform="translate(0,485)"/>
<path d="M0 0 C8.91 0 17.82 0 27 0 C27 8.91 27 17.82 27 27 C25.28770017 24.43155025 24.130075 22.10789433 22.875 19.3125 C17.71233333 9.04702367 10.68120641 4.70281822 0 1 C0 0.67 0 0.34 0 0 Z " fill="#4C6971" transform="translate(485,0)"/>
<path d="M0 0 C8.91 0 17.82 0 27 0 C24.43155025 1.71229983 22.10789433 2.869925 19.3125 4.125 C9.04702367 9.28766667 4.70281822 16.31879359 1 27 C0.67 27 0.34 27 0 27 C0 18.09 0 9.18 0 0 Z " fill="#4C6971" transform="translate(0,0)"/>
</svg>
